<mxfile host="Electron" agent="Mozilla/5.0 (Windows NT 10.0; Win64; x64) AppleWebKit/537.36 (KHTML, like Gecko) draw.io/28.1.2 Chrome/138.0.7204.243 Electron/37.4.0 Safari/537.36" version="28.1.2">
  <diagram name="Page-1" id="mug01Tq6xtqhifUAgsjG">
    <mxGraphModel dx="1878" dy="595" grid="1" gridSize="10" guides="1" tooltips="1" connect="1" arrows="1" fold="1" page="1" pageScale="1" pageWidth="850" pageHeight="1100" math="0" shadow="0">
      <root>
        <mxCell id="0" />
        <mxCell id="1" parent="0" />
        <mxCell id="aSElk__fu_hl4iuQGC2D-3" value="" style="edgeStyle=orthogonalEdgeStyle;rounded=0;orthogonalLoop=1;jettySize=auto;html=1;" edge="1" parent="1" source="aSElk__fu_hl4iuQGC2D-1" target="aSElk__fu_hl4iuQGC2D-2">
          <mxGeometry relative="1" as="geometry" />
        </mxCell>
        <mxCell id="aSElk__fu_hl4iuQGC2D-1" value="START" style="ellipse;whiteSpace=wrap;html=1;" vertex="1" parent="1">
          <mxGeometry x="210" y="10" width="120" height="80" as="geometry" />
        </mxCell>
        <mxCell id="aSElk__fu_hl4iuQGC2D-5" value="" style="edgeStyle=orthogonalEdgeStyle;rounded=0;orthogonalLoop=1;jettySize=auto;html=1;" edge="1" parent="1" source="aSElk__fu_hl4iuQGC2D-2" target="aSElk__fu_hl4iuQGC2D-19">
          <mxGeometry relative="1" as="geometry">
            <mxPoint x="270" y="210" as="targetPoint" />
          </mxGeometry>
        </mxCell>
        <mxCell id="aSElk__fu_hl4iuQGC2D-2" value="A,B,C" style="whiteSpace=wrap;html=1;" vertex="1" parent="1">
          <mxGeometry x="210" y="120" width="120" height="60" as="geometry" />
        </mxCell>
        <mxCell id="aSElk__fu_hl4iuQGC2D-6" style="edgeStyle=orthogonalEdgeStyle;rounded=0;orthogonalLoop=1;jettySize=auto;html=1;" edge="1" parent="1" source="aSElk__fu_hl4iuQGC2D-4">
          <mxGeometry relative="1" as="geometry">
            <mxPoint x="450" y="350" as="targetPoint" />
          </mxGeometry>
        </mxCell>
        <mxCell id="aSElk__fu_hl4iuQGC2D-8" value="YES" style="edgeLabel;html=1;align=center;verticalAlign=middle;resizable=0;points=[];" vertex="1" connectable="0" parent="aSElk__fu_hl4iuQGC2D-6">
          <mxGeometry x="-0.08" y="-1" relative="1" as="geometry">
            <mxPoint as="offset" />
          </mxGeometry>
        </mxCell>
        <mxCell id="aSElk__fu_hl4iuQGC2D-23" value="" style="edgeStyle=orthogonalEdgeStyle;rounded=0;orthogonalLoop=1;jettySize=auto;html=1;" edge="1" parent="1" source="aSElk__fu_hl4iuQGC2D-4" target="aSElk__fu_hl4iuQGC2D-22">
          <mxGeometry relative="1" as="geometry" />
        </mxCell>
        <mxCell id="aSElk__fu_hl4iuQGC2D-24" value="NO" style="edgeLabel;html=1;align=center;verticalAlign=middle;resizable=0;points=[];" vertex="1" connectable="0" parent="aSElk__fu_hl4iuQGC2D-23">
          <mxGeometry x="-0.5983" y="3" relative="1" as="geometry">
            <mxPoint as="offset" />
          </mxGeometry>
        </mxCell>
        <mxCell id="aSElk__fu_hl4iuQGC2D-4" value="XÃ‰T A=0" style="rhombus;whiteSpace=wrap;html=1;" vertex="1" parent="1">
          <mxGeometry x="230" y="310" width="80" height="80" as="geometry" />
        </mxCell>
        <mxCell id="aSElk__fu_hl4iuQGC2D-14" value="" style="edgeStyle=orthogonalEdgeStyle;rounded=0;orthogonalLoop=1;jettySize=auto;html=1;" edge="1" parent="1" source="aSElk__fu_hl4iuQGC2D-9" target="aSElk__fu_hl4iuQGC2D-13">
          <mxGeometry relative="1" as="geometry" />
        </mxCell>
        <mxCell id="aSElk__fu_hl4iuQGC2D-15" value="YES" style="edgeLabel;html=1;align=center;verticalAlign=middle;resizable=0;points=[];" vertex="1" connectable="0" parent="aSElk__fu_hl4iuQGC2D-14">
          <mxGeometry x="-0.09" relative="1" as="geometry">
            <mxPoint as="offset" />
          </mxGeometry>
        </mxCell>
        <mxCell id="aSElk__fu_hl4iuQGC2D-17" value="" style="edgeStyle=orthogonalEdgeStyle;rounded=0;orthogonalLoop=1;jettySize=auto;html=1;" edge="1" parent="1" source="aSElk__fu_hl4iuQGC2D-9" target="aSElk__fu_hl4iuQGC2D-16">
          <mxGeometry relative="1" as="geometry" />
        </mxCell>
        <mxCell id="aSElk__fu_hl4iuQGC2D-18" value="NO" style="edgeLabel;html=1;align=center;verticalAlign=middle;resizable=0;points=[];" vertex="1" connectable="0" parent="aSElk__fu_hl4iuQGC2D-17">
          <mxGeometry x="-0.0133" relative="1" as="geometry">
            <mxPoint as="offset" />
          </mxGeometry>
        </mxCell>
        <mxCell id="aSElk__fu_hl4iuQGC2D-9" value="B=0" style="rhombus;whiteSpace=wrap;html=1;rounded=0;" vertex="1" parent="1">
          <mxGeometry x="450" y="310" width="80" height="80" as="geometry" />
        </mxCell>
        <mxCell id="aSElk__fu_hl4iuQGC2D-31" style="edgeStyle=orthogonalEdgeStyle;rounded=0;orthogonalLoop=1;jettySize=auto;html=1;" edge="1" parent="1" source="aSElk__fu_hl4iuQGC2D-13" target="aSElk__fu_hl4iuQGC2D-32">
          <mxGeometry relative="1" as="geometry">
            <mxPoint x="770" y="350" as="targetPoint" />
          </mxGeometry>
        </mxCell>
        <mxCell id="aSElk__fu_hl4iuQGC2D-33" style="edgeStyle=orthogonalEdgeStyle;rounded=0;orthogonalLoop=1;jettySize=auto;html=1;" edge="1" parent="1" source="aSElk__fu_hl4iuQGC2D-13" target="aSElk__fu_hl4iuQGC2D-34">
          <mxGeometry relative="1" as="geometry">
            <mxPoint x="650" y="470" as="targetPoint" />
          </mxGeometry>
        </mxCell>
        <mxCell id="aSElk__fu_hl4iuQGC2D-13" value="C=0" style="rhombus;whiteSpace=wrap;html=1;rounded=0;" vertex="1" parent="1">
          <mxGeometry x="610" y="310" width="80" height="80" as="geometry" />
        </mxCell>
        <mxCell id="aSElk__fu_hl4iuQGC2D-30" value="" style="edgeStyle=orthogonalEdgeStyle;rounded=0;orthogonalLoop=1;jettySize=auto;html=1;" edge="1" parent="1" source="aSElk__fu_hl4iuQGC2D-16" target="aSElk__fu_hl4iuQGC2D-29">
          <mxGeometry relative="1" as="geometry" />
        </mxCell>
        <mxCell id="aSElk__fu_hl4iuQGC2D-16" value="X=-B/C" style="whiteSpace=wrap;html=1;rounded=0;" vertex="1" parent="1">
          <mxGeometry x="430" y="480" width="120" height="60" as="geometry" />
        </mxCell>
        <mxCell id="aSElk__fu_hl4iuQGC2D-20" value="" style="edgeStyle=orthogonalEdgeStyle;rounded=0;orthogonalLoop=1;jettySize=auto;html=1;" edge="1" parent="1" source="aSElk__fu_hl4iuQGC2D-19" target="aSElk__fu_hl4iuQGC2D-4">
          <mxGeometry relative="1" as="geometry" />
        </mxCell>
        <mxCell id="aSElk__fu_hl4iuQGC2D-19" value="X= NGHIEM&lt;br&gt;DELTA=B^2-4AC" style="rounded=0;whiteSpace=wrap;html=1;" vertex="1" parent="1">
          <mxGeometry x="210" y="220" width="120" height="60" as="geometry" />
        </mxCell>
        <mxCell id="aSElk__fu_hl4iuQGC2D-25" style="edgeStyle=orthogonalEdgeStyle;rounded=0;orthogonalLoop=1;jettySize=auto;html=1;" edge="1" parent="1" source="aSElk__fu_hl4iuQGC2D-22">
          <mxGeometry relative="1" as="geometry">
            <mxPoint x="-60" y="500" as="targetPoint" />
          </mxGeometry>
        </mxCell>
        <mxCell id="aSElk__fu_hl4iuQGC2D-63" value="NO" style="edgeLabel;html=1;align=center;verticalAlign=middle;resizable=0;points=[];" vertex="1" connectable="0" parent="aSElk__fu_hl4iuQGC2D-25">
          <mxGeometry x="-0.0651" y="1" relative="1" as="geometry">
            <mxPoint as="offset" />
          </mxGeometry>
        </mxCell>
        <mxCell id="aSElk__fu_hl4iuQGC2D-27" value="" style="edgeStyle=orthogonalEdgeStyle;rounded=0;orthogonalLoop=1;jettySize=auto;html=1;" edge="1" parent="1" source="aSElk__fu_hl4iuQGC2D-22">
          <mxGeometry relative="1" as="geometry">
            <mxPoint x="220" y="500" as="targetPoint" />
          </mxGeometry>
        </mxCell>
        <mxCell id="aSElk__fu_hl4iuQGC2D-28" value="YES" style="edgeLabel;html=1;align=center;verticalAlign=middle;resizable=0;points=[];" vertex="1" connectable="0" parent="aSElk__fu_hl4iuQGC2D-27">
          <mxGeometry x="-0.12" y="-2" relative="1" as="geometry">
            <mxPoint as="offset" />
          </mxGeometry>
        </mxCell>
        <mxCell id="aSElk__fu_hl4iuQGC2D-22" value="DELTA&amp;gt;0" style="rhombus;whiteSpace=wrap;html=1;" vertex="1" parent="1">
          <mxGeometry x="70" y="460" width="80" height="80" as="geometry" />
        </mxCell>
        <mxCell id="aSElk__fu_hl4iuQGC2D-29" value="X" style="shape=parallelogram;perimeter=parallelogramPerimeter;whiteSpace=wrap;html=1;fixedSize=1;rounded=0;" vertex="1" parent="1">
          <mxGeometry x="430" y="620" width="120" height="60" as="geometry" />
        </mxCell>
        <mxCell id="aSElk__fu_hl4iuQGC2D-62" style="edgeStyle=orthogonalEdgeStyle;rounded=0;orthogonalLoop=1;jettySize=auto;html=1;entryX=0.5;entryY=0;entryDx=0;entryDy=0;" edge="1" parent="1" source="aSElk__fu_hl4iuQGC2D-32" target="aSElk__fu_hl4iuQGC2D-54">
          <mxGeometry relative="1" as="geometry">
            <mxPoint x="430" y="690" as="targetPoint" />
            <Array as="points">
              <mxPoint x="810" y="830" />
              <mxPoint x="170" y="830" />
            </Array>
          </mxGeometry>
        </mxCell>
        <mxCell id="aSElk__fu_hl4iuQGC2D-32" value="PTVSN" style="shape=parallelogram;perimeter=parallelogramPerimeter;whiteSpace=wrap;html=1;fixedSize=1;" vertex="1" parent="1">
          <mxGeometry x="750" y="320" width="120" height="60" as="geometry" />
        </mxCell>
        <mxCell id="aSElk__fu_hl4iuQGC2D-61" style="edgeStyle=orthogonalEdgeStyle;rounded=0;orthogonalLoop=1;jettySize=auto;html=1;" edge="1" parent="1" source="aSElk__fu_hl4iuQGC2D-34" target="aSElk__fu_hl4iuQGC2D-54">
          <mxGeometry relative="1" as="geometry">
            <Array as="points">
              <mxPoint x="650" y="830" />
            </Array>
          </mxGeometry>
        </mxCell>
        <mxCell id="aSElk__fu_hl4iuQGC2D-34" value="PTVN" style="shape=parallelogram;perimeter=parallelogramPerimeter;whiteSpace=wrap;html=1;fixedSize=1;" vertex="1" parent="1">
          <mxGeometry x="590" y="470" width="120" height="60" as="geometry" />
        </mxCell>
        <mxCell id="aSElk__fu_hl4iuQGC2D-38" style="edgeStyle=orthogonalEdgeStyle;rounded=0;orthogonalLoop=1;jettySize=auto;html=1;" edge="1" parent="1" source="aSElk__fu_hl4iuQGC2D-37" target="aSElk__fu_hl4iuQGC2D-39">
          <mxGeometry relative="1" as="geometry">
            <mxPoint x="290" y="610" as="targetPoint" />
          </mxGeometry>
        </mxCell>
        <mxCell id="aSElk__fu_hl4iuQGC2D-37" value="X1=(-B+SQTR(DT))/2A&lt;br&gt;&lt;div&gt;X2=(-B+SQRT(DT))/2A&lt;/div&gt;" style="rounded=0;whiteSpace=wrap;html=1;" vertex="1" parent="1">
          <mxGeometry x="220" y="470" width="140" height="60" as="geometry" />
        </mxCell>
        <mxCell id="aSElk__fu_hl4iuQGC2D-58" style="edgeStyle=orthogonalEdgeStyle;rounded=0;orthogonalLoop=1;jettySize=auto;html=1;" edge="1" parent="1" source="aSElk__fu_hl4iuQGC2D-39" target="aSElk__fu_hl4iuQGC2D-54">
          <mxGeometry relative="1" as="geometry" />
        </mxCell>
        <mxCell id="aSElk__fu_hl4iuQGC2D-39" value="X1&lt;br&gt;X2" style="shape=parallelogram;perimeter=parallelogramPerimeter;whiteSpace=wrap;html=1;fixedSize=1;" vertex="1" parent="1">
          <mxGeometry x="230" y="620" width="120" height="60" as="geometry" />
        </mxCell>
        <mxCell id="aSElk__fu_hl4iuQGC2D-42" value="" style="edgeStyle=orthogonalEdgeStyle;rounded=0;orthogonalLoop=1;jettySize=auto;html=1;" edge="1" parent="1" source="aSElk__fu_hl4iuQGC2D-40" target="aSElk__fu_hl4iuQGC2D-41">
          <mxGeometry relative="1" as="geometry" />
        </mxCell>
        <mxCell id="aSElk__fu_hl4iuQGC2D-46" value="YES" style="edgeLabel;html=1;align=center;verticalAlign=middle;resizable=0;points=[];" vertex="1" connectable="0" parent="aSElk__fu_hl4iuQGC2D-42">
          <mxGeometry x="-0.0533" y="1" relative="1" as="geometry">
            <mxPoint as="offset" />
          </mxGeometry>
        </mxCell>
        <mxCell id="aSElk__fu_hl4iuQGC2D-48" value="" style="edgeStyle=orthogonalEdgeStyle;rounded=0;orthogonalLoop=1;jettySize=auto;html=1;" edge="1" parent="1" source="aSElk__fu_hl4iuQGC2D-49">
          <mxGeometry relative="1" as="geometry">
            <mxPoint x="-100" y="630" as="targetPoint" />
          </mxGeometry>
        </mxCell>
        <mxCell id="aSElk__fu_hl4iuQGC2D-53" style="edgeStyle=orthogonalEdgeStyle;rounded=0;orthogonalLoop=1;jettySize=auto;html=1;" edge="1" parent="1" source="aSElk__fu_hl4iuQGC2D-40">
          <mxGeometry relative="1" as="geometry">
            <mxPoint x="-100" y="600" as="targetPoint" />
          </mxGeometry>
        </mxCell>
        <mxCell id="aSElk__fu_hl4iuQGC2D-64" value="Text" style="edgeLabel;html=1;align=center;verticalAlign=middle;resizable=0;points=[];" vertex="1" connectable="0" parent="aSElk__fu_hl4iuQGC2D-53">
          <mxGeometry x="0.1269" y="1" relative="1" as="geometry">
            <mxPoint as="offset" />
          </mxGeometry>
        </mxCell>
        <mxCell id="aSElk__fu_hl4iuQGC2D-40" value="DT=0" style="rhombus;whiteSpace=wrap;html=1;" vertex="1" parent="1">
          <mxGeometry x="-140" y="460" width="80" height="80" as="geometry" />
        </mxCell>
        <mxCell id="aSElk__fu_hl4iuQGC2D-44" value="" style="edgeStyle=orthogonalEdgeStyle;rounded=0;orthogonalLoop=1;jettySize=auto;html=1;" edge="1" parent="1" source="aSElk__fu_hl4iuQGC2D-41" target="aSElk__fu_hl4iuQGC2D-43">
          <mxGeometry relative="1" as="geometry" />
        </mxCell>
        <mxCell id="aSElk__fu_hl4iuQGC2D-41" value="X=-B/2A" style="whiteSpace=wrap;html=1;" vertex="1" parent="1">
          <mxGeometry x="-320" y="470" width="120" height="60" as="geometry" />
        </mxCell>
        <mxCell id="aSElk__fu_hl4iuQGC2D-56" style="edgeStyle=orthogonalEdgeStyle;rounded=0;orthogonalLoop=1;jettySize=auto;html=1;entryX=0;entryY=0;entryDx=0;entryDy=0;exitX=0.353;exitY=1;exitDx=0;exitDy=0;exitPerimeter=0;" edge="1" parent="1" source="aSElk__fu_hl4iuQGC2D-43">
          <mxGeometry relative="1" as="geometry">
            <mxPoint x="110.00359312880727" y="821.7157287525381" as="targetPoint" />
            <mxPoint x="-277.57" y="700" as="sourcePoint" />
            <Array as="points">
              <mxPoint x="-270" y="670" />
              <mxPoint x="-270" y="820" />
              <mxPoint x="92" y="820" />
              <mxPoint x="92" y="822" />
            </Array>
          </mxGeometry>
        </mxCell>
        <mxCell id="aSElk__fu_hl4iuQGC2D-43" value="X" style="shape=parallelogram;perimeter=parallelogramPerimeter;whiteSpace=wrap;html=1;fixedSize=1;" vertex="1" parent="1">
          <mxGeometry x="-320" y="610" width="120" height="60" as="geometry" />
        </mxCell>
        <mxCell id="aSElk__fu_hl4iuQGC2D-49" value="PTVN" style="shape=parallelogram;perimeter=parallelogramPerimeter;whiteSpace=wrap;html=1;fixedSize=1;" vertex="1" parent="1">
          <mxGeometry x="-160" y="610" width="120" height="60" as="geometry" />
        </mxCell>
        <mxCell id="aSElk__fu_hl4iuQGC2D-54" value="END" style="ellipse;whiteSpace=wrap;html=1;" vertex="1" parent="1">
          <mxGeometry x="110" y="780" width="120" height="80" as="geometry" />
        </mxCell>
        <mxCell id="aSElk__fu_hl4iuQGC2D-57" style="edgeStyle=orthogonalEdgeStyle;rounded=0;orthogonalLoop=1;jettySize=auto;html=1;entryX=0.313;entryY=0.027;entryDx=0;entryDy=0;entryPerimeter=0;" edge="1" parent="1" source="aSElk__fu_hl4iuQGC2D-49" target="aSElk__fu_hl4iuQGC2D-54">
          <mxGeometry relative="1" as="geometry" />
        </mxCell>
        <mxCell id="aSElk__fu_hl4iuQGC2D-59" style="edgeStyle=orthogonalEdgeStyle;rounded=0;orthogonalLoop=1;jettySize=auto;html=1;entryX=1;entryY=0.625;entryDx=0;entryDy=0;entryPerimeter=0;" edge="1" parent="1" source="aSElk__fu_hl4iuQGC2D-29" target="aSElk__fu_hl4iuQGC2D-54">
          <mxGeometry relative="1" as="geometry">
            <Array as="points">
              <mxPoint x="490" y="830" />
            </Array>
          </mxGeometry>
        </mxCell>
      </root>
    </mxGraphModel>
  </diagram>
</mxfile>
